<svg width="69" height="55" viewBox="0 0 69 55" fill="none" xmlns="http://www.w3.org/2000/svg">
<path d="M30.54 54.0824L24.0592 52.2155C23.3793 52.0256 22.9968 51.3189 23.188 50.6439L37.69 1.04874C37.8813 0.373685 38.5931 -0.00603095 39.273 0.183827L45.7538 2.05076C46.4337 2.24062 46.8162 2.94732 46.625 3.62237L32.123 53.2175C31.9211 53.8926 31.2199 54.2828 30.54 54.0824ZM18.4284 42.2479L23.0499 37.3538C23.5386 36.837 23.5068 36.0143 22.9649 35.5396L13.3394 27.1331L22.9649 18.7266C23.5068 18.252 23.5493 17.4293 23.0499 16.9124L18.4284 12.0183C17.9503 11.512 17.1429 11.4804 16.6223 11.9656L1.31287 26.2049C0.771036 26.7007 0.771036 27.555 1.31287 28.0508L16.6223 42.3007C17.1429 42.7859 17.9503 42.7648 18.4284 42.2479ZM53.1907 42.3112L68.5001 28.0613C69.042 27.5656 69.042 26.7112 68.5001 26.2155L53.1907 11.955C52.6807 11.4804 51.8733 11.5015 51.3846 12.0078L46.7631 16.9019C46.2744 17.4187 46.3062 18.2414 46.8481 18.7161L56.4736 27.1331L46.8481 35.5396C46.3062 36.0143 46.2637 36.837 46.7631 37.3538L51.3846 42.2479C51.8627 42.7648 52.6701 42.7859 53.1907 42.3112Z" fill="url(#paint0_linear_76_399)"/>
<defs>
<linearGradient id="paint0_linear_76_399" x1="18" y1="8" x2="57.5" y2="50.5" gradientUnits="userSpaceOnUse">
<stop stop-color="#4055E4"/>
<stop offset="1" stop-color="#7A26D0"/>
</linearGradient>
</defs>
</svg>
